# AST/ASF file generated using VICON BodyLanguage
# -----------------------------------------------
:version 1.10
:name VICON
:units
  mass 1.0
  length 0.45
  angle deg
:documentation
   .ast/.asf automatically generated from VICON data using
   VICON BodyBuilder and BodyLanguage model FoxedUp or BRILLIANT.MOD
:root
   order TX TY TZ RX RY RZ
   axis XYZ
   position 0 0 0  
   orientation 0 0 0 
:bonedata
  begin
     id 1 
     name lhipjoint
     direction 0.692814 -0.645514 0.321437 
     length 2.38754 
     axis 0 0 0  XYZ
  end
  begin
     id 2 
     name lfemur
     direction 0.34202 -0.939693 0  
     length 6.41921  
     axis 0 0 20  XYZ
    dof rx ry rz
    limits (-160.0 20.0)
           (-70.0 70.0)
           (-60.0 70.0)
  end
  begin
     id 3 
     name ltibia
     direction 0.34202 -0.939693 0   
     length 6.98247   
     axis 0 0 20   XYZ
    dof rx
    limits (-10.0 170.0)
  end
  begin
     id 4 
     name lfoot
     direction 0.0947186 -0.260237 0.960888   
     length 1.83034   
     axis -90 7.62852e-016 20   XYZ
    dof rx rz
    limits (-45.0 90.0)
           (-70.0 20.0)
  end
  begin
     id 5 
     name ltoes
     direction 1.53538e-011 -4.21952e-011 1   
     length 0.920499   
     axis -90 7.62852e-016 20   XYZ
    dof rx
    limits (-90.0 20.0)
  end
  begin
     id 6 
     name rhipjoint
     direction -0.631686 -0.693949 0.345555   
     length 2.2209  
     axis 0 0 0  XYZ 
  end
  begin
     id 7 
     name rfemur
     direction -0.34202 -0.939693 0   
     length 6.49542   
     axis 0 0 -20   XYZ
    dof rx ry rz
    limits (-160.0 20.0)
           (-70.0 70.0)
           (-70.0 60.0)
  end
  begin
     id 8 
     name rtibia
     direction -0.34202 -0.939693 0   
     length 7.21712   
     axis 0 0 -20   XYZ
    dof rx
    limits (-10.0 170.0)
 end
 begin
     id 9 
     name rfoot
     direction -0.0825378 -0.226771 0.970444   
     length 1.89724  
     axis -90 -7.62852e-016 -20   XYZ
    dof rx rz
    limits (-45.0 90.0)
           (-20.0 70.0)
  end
  begin
     id 10 
     name rtoes
     direction -1.53515e-011 -4.22016e-011 1   
     length 0.955868   
     axis -90 -7.62852e-016 -20   XYZ
    dof rx
    limits (-90.0 20.0)
  end
  begin
     id 11 
     name lowerback
     direction -0.0104711 0.984802 -0.173368   
     length 1.84931   
     axis 0 0 0   XYZ
    dof rx ry rz
    limits (-20.0 45.0)
           (-30.0 30.0)
           (-30.0 30.0)
  end
  begin
     id 12 
     name upperback
     direction -0.00286433 0.999996 -0.000382853   
     length 1.85768   
     axis 0 0 0   XYZ
    dof rx ry rz
    limits (-20.0 45.0)
           (-30.0 30.0)
           (-30.0 30.0)
  end
  begin
     id 13 
     name thorax
     direction 0.00167534 0.996793 0.0800069   
     length 1.92   
     axis 0 0 0   XYZ
    dof rx ry rz
    limits (-20.0 45.0)
           (-30.0 30.0)
           (-30.0 30.0)
  end
  begin
     id 14 
     name lowerneck
     direction -0.0672491 0.995415 0.068018   
     length 1.58923   
     axis 0 0 0   XYZ
    dof rx ry rz
    limits (-20.0 45.0)
           (-30.0 30.0)
           (-30.0 30.0)
  end
  begin
     id 15 
     name upperneck
     direction 0.0958019 0.982476 -0.159884   
     length 1.60189   
     axis 0 0 0   XYZ
    dof rx ry rz
    limits (-20.0 45.0)
           (-30.0 30.0)
           (-30.0 30.0)
  end
  begin
     id 16
     name head
     direction 0.032989 0.997338 -0.0650226  
     length 1.61681  
     axis 0 0 0   XYZ
    dof rx ry rz
    limits (-20.0 45.0)
           (-30.0 30.0)
           (-30.0 30.0)
  end
  begin
     id 17 
     name lclavicle
     direction 0.954279 0.298875 -0.00496069  
     length 2.99449  
     axis 0 0 0   XYZ
    dof ry rz
    limits (-20.0 10.0)
           (0.0 20.0)
  end
  begin
     id 18 
     name lhumerus
     direction 1 -4.48985e-011 -4.2057e-027   
     length 4.79185   
     axis 180 -30 -90   XYZ
    dof rx ry rz
    limits (-60.0 90.0)
           (-90.0 90.0)
           (-90.0 90.0)
  end
  begin
     id 19
     name lradius
     direction 1 -4.48945e-011 1.15441e-028   
     length 2.65553   
     axis 180 -30 -90   XYZ
    dof rx
    limits (-10.0 170.0)
  end
  begin
     id 20
     name lwrist
     direction 1 -4.4899e-011 4.8894e-028   
     length 1.32777   
     axis -2.56392e-016 90 90   XYZ
    dof ry
    limits (-180.0 0.0)
 end
  begin
     id 21 
     name lhand
     direction 1 -4.48908e-011 9.7788e-028   
     length 0.743904   
     axis -6.23971e-016 90 90   XYZ
    dof rx rz
    limits (-90.0 90.0)
           (-45.0 45.0)
  end
  begin
     id 22 
     name lfingers
     direction 1 -4.49068e-011 1.95576e-027   
     length 0.599754   
     axis -1.24794e-015 90 90   XYZ
    dof rx
    limits (0.0 90.0)
  end
  begin
     id 23
     name lthumb
     direction 0.707107 -6.34883e-011 0.707107   
     length 0.861131   
     axis -90 45 2.85299e-015   XYZ
    dof rx rz
    limits (-45.0 45.0)
           (-45.0 45.0)
  end
  begin
     id 24 
     name rclavicle
     direction -0.957921 0.286916 0.00811568   
     length 3.06817  
     axis 0 0 0   XYZ 
    dof ry rz
    limits (-10.0 20.0)
           (-20.0 0.0)
  end
  begin
     id 25 
     name rhumerus
     direction -1 -4.48971e-011 -3.07942e-027  
     length 4.77254   
     axis 180 30 90   XYZ
    dof rx ry rz
    limits (-90.0 60.0)
           (-90.0 90.0)
           (-90.0 90.0)
  end
  begin
     id 26 
     name rradius
     direction -1 -4.48957e-011 -9.6815e-028   
     length 2.75995   
     axis 180 30 90   XYZ
    dof rx
    limits (-10.0 170.0)
  end
  begin
     id 27 
     name rwrist
     direction -1 -4.48979e-011 4.8894e-028   
     length 1.37997   
     axis -2.56392e-016 -90 -90   XYZ
    dof ry
    limits (-180.0 0.0)
  end
  begin
     id 28
     name rhand
     direction -1 -4.48906e-011 9.7788e-028   
     length 0.701619   
     axis -6.23971e-016 -90 -90   XYZ
    dof rx rz
    limits (-90.0 90.0)
           (-45.0 45.0)
  end
  begin
     id 29
     name rfingers
     direction -1 -4.49018e-011 1.95576e-027   
     length 0.565663   
     axis -1.24794e-015 -90 -90   XYZ
    dof rx
    limits (0.0 90.0)
  end
  begin
     id 30
     name rthumb
     direction -0.707107 -6.34881e-011 0.707107   
     length 0.812183   
     axis -90 -45 -2.85299e-015   XYZ
    dof rx rz
    limits (-45.0 45.0)
           (-45.0 45.0)
  end
:hierarchy
  begin
    root lhipjoint rhipjoint lowerback
    lhipjoint lfemur
    lfemur ltibia
    ltibia lfoot
    lfoot ltoes
    rhipjoint rfemur
    rfemur rtibia
    rtibia rfoot
    rfoot rtoes
    lowerback upperback
    upperback thorax
    thorax lowerneck lclavicle rclavicle
    lowerneck upperneck
    upperneck head
    lclavicle lhumerus
    lhumerus lradius
    lradius lwrist
    lwrist lhand lthumb
    lhand lfingers
    rclavicle rhumerus
    rhumerus rradius
    rradius rwrist
    rwrist rhand rthumb
    rhand rfingers
  end

#!OML:ASF F:\VICON\USERDATA\INSTALL\rory3\rory3.ASF
:FULLY-SPECIFIED
:DEGREES
104
root 0.32933 16.1497 -0.200973 -1.47505 0.083108 -1.56785
lowerback 10.5275 0.900456 -0.414137
upperback -1.18396 1.13279 -0.197432
thorax -7.16931 0.565527 -0.161926
lowerneck -10.0925 -9.28569 -13.7167
upperneck 23.9705 -12.8915 9.76148
head 10.9417 -6.17687 4.06223
rclavicle -2.85753e-015 4.77083e-015
rhumerus -39.057 3.57462 -86.8014
rradius 33.9038
rwrist 7.08098
rhand -9.13088 11.4088
rfingers 7.12502
rthumb 16.8204 -17.8826
lclavicle -2.85753e-015 4.77083e-015
lhumerus -31.9812 3.17796 84.3993
lradius 22.6162
lwrist -3.56618
lhand -7.43114 13.7319
lfingers 7.12502
lthumb 18.4561 42.8764
rfemur 4.07928 11.9205 18.7879
rtibia 9.08159
rfoot -8.67906 -13.8247
rtoes -7.51341
lfemur 8.24642 -9.07002 -15.7687
ltibia 1.59028e-014
lfoot -3.84951 7.55817
ltoes -11.2643
105
root 0.329573 16.1494 -0.201104 -1.48884 0.108238 -1.52911
lowerback 10.5309 0.889138 -0.443699
upperback -1.16449 1.11401 -0.195544
thorax -7.15106 0.557565 -0.140013
lowerneck -10.1783 -9.26693 -13.7406
upperneck 24.0411 -12.8573 9.77
head 10.9826 -6.15913 4.07213
rclavicle -1.16848e-014 -3.18055e-015
rhumerus -39.0297 3.72461 -86.8385
rradius 33.9188
rwrist 7.03136
rhand -9.18308 11.3499
rfingers 7.12502
rthumb 16.7702 -17.9458
lclavicle -1.16848e-014 -3.18055e-015
lhumerus -31.9235 2.8417 84.6286
lradius 22.8765
lwrist -3.23195
lhand -7.42441 13.6579
lfingers 7.12502
lthumb 18.4626 42.8018
rfemur 4.06319 11.8968 18.749
rtibia 9.16474
rfoot -8.73893 -13.8407
rtoes -7.74271
lfemur 8.25996 -9.09454 -15.8175
ltibia 1.59028e-014
lfoot -3.86207 7.55302
ltoes -11.2176
106
root 0.328986 16.1493 -0.201311 -1.49484 0.120634 -1.48911
lowerback 10.5498 0.896331 -0.461313
upperback -1.16914 1.11943 -0.220168
thorax -7.16669 0.560356 -0.157301
lowerneck -10.2024 -9.25698 -13.7633
upperneck 24.0967 -12.8586 9.83578
head 11.0149 -6.15398 4.09956
rclavicle 9.57894e-015 6.75868e-015
rhumerus -39.0488 3.75275 -86.8928
rradius 33.9273
rwrist 6.91468
rhand -9.27878 11.4556
rfingers 7.12502
rthumb 16.6781 -17.8479
lclavicle 9.57894e-015 6.75868e-015
lhumerus -31.9047 2.4563 84.8303
lradius 23.1319
lwrist -2.93718
lhand -7.58578 13.5874
lfingers 7.12502
lthumb 18.3074 42.7459
rfemur 4.0381 11.8859 18.7043
rtibia 9.23632
rfoot -8.81202 -13.8604
rtoes -7.5993
lfemur 8.26604 -9.10602 -15.8625
ltibia 1.59028e-015
lfoot -3.84665 7.55604
ltoes -11.2692
107
root 0.328542 16.1493 -0.203035 -1.4775 0.0879047 -1.48854
lowerback 10.5433 0.924473 -0.45935
upperback -1.16488 1.15708 -0.222673
thorax -7.15844 0.578621 -0.167117
lowerneck -10.2091 -9.25746 -13.7644
upperneck 24.0646 -12.8683 9.88461
head 11.0092 -6.1532 4.11554
rclavicle -1.09766e-014 -3.97569e-015
rhumerus -39.046 3.78822 -86.9347
rradius 33.9663
rwrist 6.72529
rhand -9.34567 11.5461
rfingers 7.12502
rthumb 16.6137 -17.7628
lclavicle -1.09766e-014 -3.97569e-015
lhumerus -31.8337 2.20716 85.0018
lradius 23.312
lwrist -2.68404
lhand -7.6446 13.5066
lfingers 7.12502
lthumb 18.2508 42.6704
rfemur 3.98146 11.9183 18.6994
rtibia 9.27923
rfoot -8.76982 -13.8636
rtoes -7.80991
lfemur 8.24716 -9.07241 -15.8559
ltibia -7.15625e-015
lfoot -3.81925 7.52983
ltoes -11.3448
108
root 0.327997 16.1498 -0.206102 -1.44529 0.08715 -1.45001
lowerback 10.5439 0.941618 -0.492992
upperback -1.17395 1.17417 -0.241843
thorax -7.16879 0.587892 -0.171313
lowerneck -10.1326 -9.25474 -13.7389
upperneck 23.959 -12.8768 9.91267
head 10.956 -6.15498 4.1223
rclavicle 1.49958e-014 -1.98785e-015
rhumerus -39.0503 3.80626 -86.9628
rradius 34.0577
rwrist 6.70073
rhand -9.19753 11.4689
rfingers 7.12502
rthumb 16.7563 -17.828
lclavicle 1.49958e-014 -1.98785e-015
lhumerus -31.8067 1.71516 85.2592
lradius 23.5501
lwrist -2.23142
lhand -7.81473 13.44
lfingers 7.12502
lthumb 18.0871 42.619
rfemur 3.90614 11.9195 18.6509
rtibia 9.32367
rfoot -8.77386 -13.8622
rtoes -7.87313
lfemur 8.18786 -9.06824 -15.8904
ltibia -5.56597e-015
lfoot -3.78115 7.56202
ltoes -11.7384
109
root 0.326922 16.1506 -0.20951 -1.42638 0.0904844 -1.44943
lowerback 10.595 0.951812 -0.500927
upperback -1.19574 1.18662 -0.237309
thorax -7.22148 0.594318 -0.165339
lowerneck -10.0285 -9.25033 -13.7096
upperneck 23.8132 -12.8736 9.9057
head 10.878 -6.15585 4.11809
rclavicle -7.35503e-015 -2.38542e-015
rhumerus -39.0451 3.82297 -86.9548
rradius 34.119
rwrist 6.85385
rhand -8.98006 11.3534
rfingers 7.12502
rthumb 16.9656 -17.9257
lclavicle -7.35503e-015 -2.38542e-015
lhumerus -31.7804 1.29151 85.5049
lradius 23.7338
lwrist -1.86893
lhand -7.98342 13.2567
lfingers 7.12502
lthumb 17.9248 42.4507
rfemur 3.85004 11.9154 18.653
rtibia 9.36601
rfoot -8.76803 -13.8585
rtoes -7.80542
lfemur 8.14981 -9.07107 -15.8756
ltibia 0
lfoot -3.79248 7.53905
ltoes -11.5434
110
root 0.326363 16.152 -0.211994 -1.41388 0.0953391 -1.40943
lowerback 10.6153 0.950724 -0.538151
upperback -1.20106 1.17995 -0.239762
thorax -7.23949 0.592477 -0.146285
lowerneck -9.98153 -9.22835 -13.7078
upperneck 23.7313 -12.8411 9.90924
head 10.8339 -6.14246 4.12538
rclavicle -1.8077e-015 -1.47101e-014
rhumerus -39.0214 3.83692 -86.9506
rradius 34.1426
rwrist 6.94209
rhand -8.93731 11.291
rfingers 7.12502
rthumb 17.0068 -17.9845
lclavicle -1.8077e-015 -1.47101e-014
lhumerus -31.7167 1.12306 85.6558
lradius 23.9129
lwrist -1.66365
lhand -8.06763 13.112
lfingers 7.12502
lthumb 17.8438 42.3133
rfemur 3.83767 11.9117 18.6017
rtibia 9.35127
rfoot -8.79647 -13.8728
rtoes -7.63274
lfemur 8.12317 -9.07391 -15.915
ltibia 1.74931e-014
lfoot -3.75653 7.55562
ltoes -11.3054
111
root 0.326575 16.153 -0.212926 -1.39227 0.083829 -1.44706
lowerback 10.6007 0.951684 -0.480912
upperback -1.20362 1.18864 -0.242285
thorax -7.23262 0.59439 -0.182395
lowerneck -10.0086 -9.2214 -13.7043
upperneck 23.7446 -12.8407 9.9502
head 10.8467 -6.13683 4.13903
rclavicle -1.37969e-014 -4.37326e-015
rhumerus -39.015 3.83198 -86.9869
rradius 34.1841
rwrist 6.98111
rhand -9.03511 11.263
rfingers 7.12502
rthumb 16.9126 -18.0206
lclavicle -1.37969e-014 -4.37326e-015
lhumerus -31.68 0.790969 85.8386
lradius 24.1496
lwrist -1.44269
lhand -8.10158 13.1467
lfingers 7.12502
lthumb 17.8111 42.3511
rfemur 3.82624 11.922 18.6297
rtibia 9.29084
rfoot -8.70608 -13.8924
rtoes -7.47219
lfemur 8.10532 -9.06195 -15.8718
ltibia 7.15625e-015
lfoot -3.76912 7.59304
ltoes -11.1709
